<?xml version="1.0" encoding="UTF-8"?>
<svg id="Capa_2" data-name="Capa 2" xmlns="http://www.w3.org/2000/svg" viewBox="0 0 51.94 58.13">
  <defs>
    <style>
      .cls-1 {
        fill: #c9b895;
      }

      .cls-1, .cls-2 {
        stroke: #ca9e67;
        stroke-miterlimit: 10;
      }

      .cls-2 {
        fill: #b3a280;
      }
    </style>
  </defs>
  <g id="pierna_derecha" data-name="pierna derecha">
    <g>
      <path class="cls-1" d="M8.36,47.53c3.69,4,8.1,6.31,12,7.66.7.37,8.9,4.51,17.74,1.12.06-1.82-.11-3.95-.76-6.23-.51-1.75-1.19-3.23-1.86-4.4-.42-.94-.08-1.97.64-2.36.51-.28,1.18-.22,1.73.12.93,1.22,2.2,3.21,2.93,5.94.55,2.05.61,3.83.5,5.38,7.54-4.54,9.43-12.36,9.71-13.61.62-4.49,1.28-13.92-3-24.51-3.17-7.83-7.76-13.12-10.78-16.09C26.15,3.02,15.08,5.49,4.02,7.96-1.83,22.69-.39,38.06,8.36,47.53Z"/>
      <path class="cls-2" d="M35.48,45.68c.67,1.17,1.35,2.65,1.86,4.4.65,2.28.82,4.41.76,6.23.81-.31,1.62-.68,2.43-1.12.26-.14.5-.28.75-.43.11-1.55.05-3.33-.5-5.38-.73-2.73-2-4.72-2.93-5.94-.55-.34-1.22-.4-1.73-.12-.72.39-1.06,1.42-.64,2.36Z"/>
    </g>
  </g>
</svg>